<?xml version="1.0" standalone="no"?>
<!DOCTYPE svg PUBLIC "-//W3C//DTD SVG 20010904//EN"
 "http://www.w3.org/TR/2001/REC-SVG-20010904/DTD/svg10.dtd">
<svg version="1.0" xmlns="http://www.w3.org/2000/svg"
 width="263.000000pt" height="263.000000pt" viewBox="0 0 263.000000 263.000000"
 preserveAspectRatio="xMidYMid meet">
<metadata>
Created by potrace 1.14, written by Peter Selinger 2001-2017
</metadata>
<g transform="translate(0.000000,263.000000) scale(0.100000,-0.100000)"
fill="#000000" stroke="none">
<path d="M2080 2064 c-419 -420 -595 -585 -615 -578 -13 5 -14 9 -3 15 11 7
10 9 -1 9 -10 0 -8 7 7 23 l22 23 -40 23 c-22 12 -40 25 -40 28 0 3 8 17 19
31 10 15 24 37 30 50 11 21 10 22 -13 16 -32 -8 -32 0 -1 51 14 22 25 46 25
53 0 15 -162 185 -231 243 l-47 39 24 -92 c22 -87 23 -95 8 -123 -15 -28 -14
-35 10 -110 14 -43 24 -81 22 -82 -2 -2 -25 6 -51 17 -26 11 -49 19 -51 17 -2
-2 12 -29 31 -61 36 -59 37 -76 5 -76 -27 0 -30 -22 -6 -49 l21 -24 -28 5
c-27 5 -27 5 -11 -13 13 -15 14 -19 3 -19 -7 0 -126 112 -264 249 l-250 250
-129 60 c-71 34 -131 59 -133 57 -7 -6 276 -246 389 -330 59 -44 106 -81 105
-82 -1 -2 -33 6 -70 16 -37 10 -67 17 -67 16 0 -2 43 -29 95 -62 92 -57 111
-74 80 -74 -29 0 -14 -20 33 -44 31 -17 40 -25 27 -26 -18 -1 -17 -2 5 -15
121 -69 -290 125 -717 339 l-273 136 0 -30 c0 -27 6 -33 46 -50 25 -11 49 -18
54 -15 4 2 95 -38 201 -90 164 -80 187 -94 149 -90 l-45 5 60 -28 c33 -15 91
-41 129 -57 51 -22 64 -31 50 -35 -13 -5 1 -13 51 -30 70 -22 93 -35 84 -45
-3 -2 -61 13 -130 34 -112 35 -606 197 -636 208 -7 3 -13 1 -13 -5 0 -6 26
-20 58 -31 l57 -21 -45 6 c-25 4 -43 4 -40 1 8 -7 298 -95 359 -108 31 -6 49
-14 42 -19 -8 -4 17 -15 58 -25 39 -11 71 -22 71 -27 0 -12 6 -13 -284 57
-148 36 -270 65 -272 65 -2 0 -4 -6 -4 -14 0 -14 66 -35 117 -37 l28 -1 -25
-9 c-23 -8 -22 -8 7 -6 18 2 30 0 27 -5 -3 -4 5 -8 17 -8 32 0 207 -43 189
-47 -8 -1 -93 12 -187 30 -131 25 -173 30 -173 20 0 -13 4 -14 103 -33 76 -15
69 -23 -9 -10 -104 17 -94 40 -94 -210 l0 -219 28 4 c15 3 54 9 86 15 33 5 61
8 63 6 4 -4 -51 -16 -140 -32 -23 -4 -37 -12 -37 -21 0 -11 7 -13 27 -9 100
22 347 65 350 62 6 -6 -20 -13 -147 -39 -71 -15 -107 -27 -95 -30 13 -4 10 -5
-8 -3 -15 2 -30 0 -32 -5 -3 -4 -26 -11 -50 -15 -29 -4 -45 -11 -45 -20 0 -8
6 -14 13 -14 7 0 131 29 277 65 145 35 266 62 269 60 2 -3 11 1 20 7 14 11 14
10 1 -3 -14 -15 -148 -58 -187 -60 -13 -1 -11 -3 7 -9 21 -7 22 -8 5 -9 -11
-1 -99 -25 -195 -53 -139 -42 -169 -54 -145 -58 29 -5 28 -6 -17 -19 -27 -8
-48 -18 -48 -22 0 -14 7 -12 135 31 332 113 618 199 631 192 10 -5 -9 -15 -58
-31 -50 -16 -67 -26 -55 -30 12 -4 -22 -23 -108 -60 -69 -29 -125 -55 -125
-58 0 -3 19 -3 43 1 32 5 0 -15 -143 -85 -102 -50 -198 -92 -215 -93 -16 -2
-47 -12 -67 -22 -31 -14 -38 -23 -38 -46 0 -15 2 -28 3 -28 2 0 228 111 501
246 274 135 501 243 503 240 3 -3 -7 -11 -22 -18 -22 -10 -24 -13 -10 -18 13
-5 7 -11 -24 -25 -41 -18 -54 -35 -26 -35 32 0 12 -20 -75 -75 -50 -32 -89
-59 -88 -61 2 -2 26 3 53 12 27 8 53 13 57 12 5 -2 -39 -39 -98 -83 -86 -64
-310 -251 -384 -322 -8 -8 15 0 53 16 216 98 182 73 459 347 141 140 261 254
267 254 17 0 13 -18 -7 -29 -14 -9 -13 -10 11 -11 l28 0 -20 -22 c-23 -24 -19
-38 9 -38 34 0 33 -20 -3 -78 -20 -31 -32 -58 -28 -60 4 -1 27 6 52 17 24 11
45 18 47 16 2 -2 -9 -42 -24 -89 -27 -81 -27 -86 -11 -104 17 -19 17 -24 -4
-106 -12 -48 -19 -89 -16 -93 8 -7 106 84 203 186 l68 72 -27 55 c-15 30 -27
57 -27 59 0 3 12 2 27 -1 l27 -7 -18 29 c-11 16 -25 38 -33 49 -18 27 -18 29
28 54 38 22 39 24 24 41 -19 21 -17 55 3 55 7 0 124 -110 260 -245 421 -417
596 -586 574 -555 -12 17 -55 74 -97 128 -41 53 -73 97 -71 97 3 0 17 -5 31
-10 l27 -10 -22 27 c-99 126 -208 238 -278 284 -97 65 -100 68 -65 62 20 -4 3
10 -55 47 l-83 52 17 25 c13 21 14 27 3 33 -58 33 -87 55 -83 61 4 8 130 -48
304 -136 172 -86 540 -264 540 -260 0 2 -60 40 -133 84 -73 44 -144 91 -159
104 -15 14 -53 40 -85 58 -32 18 -70 43 -85 55 -15 12 -51 30 -80 40 -70 23
-137 54 -118 54 8 0 62 -15 120 -34 58 -19 218 -71 355 -116 138 -44 269 -87
293 -95 31 -10 42 -11 42 -2 -1 16 -47 38 -200 97 -69 26 -143 55 -165 65
l-40 17 20 -21 19 -22 -24 10 c-14 5 -43 19 -66 30 -22 11 -52 23 -67 26 -26
7 -48 25 -29 25 4 0 44 -9 88 -20 260 -64 458 -110 462 -106 2 3 2 11 -1 18
-5 15 -115 53 -125 44 -3 -3 1 -6 8 -6 7 0 11 -3 8 -6 -4 -3 -41 6 -85 20 -43
14 -98 30 -122 36 -136 35 112 -3 297 -45 14 -4 22 -1 22 8 0 8 -25 20 -62 30
l-63 16 63 -6 62 -6 0 217 0 216 -57 -5 -58 -4 53 13 c30 8 56 17 59 20 20 19
-26 16 -173 -13 -91 -18 -168 -31 -170 -29 -2 2 43 18 99 36 56 17 111 34 122
38 20 7 20 6 0 -9 -18 -15 -16 -16 30 -2 28 8 60 18 73 21 13 4 22 14 22 25 0
10 -5 16 -12 14 -47 -16 -531 -126 -535 -121 -3 3 3 8 13 12 10 3 47 19 81 35
71 34 74 34 67 14 -5 -13 -2 -14 19 -6 14 6 34 15 44 21 10 5 63 26 118 46
109 38 205 84 205 96 0 4 -4 8 -10 8 -5 0 -134 -41 -287 -91 -153 -50 -327
-106 -388 -126 -60 -20 -116 -38 -122 -41 -7 -2 -13 0 -13 6 0 5 10 12 23 15
45 11 181 67 188 78 4 6 43 33 88 58 45 26 79 50 76 53 -3 2 60 44 140 93 80
48 145 89 145 91 0 6 -117 -50 -474 -225 -192 -94 -351 -169 -354 -167 -7 7
20 31 56 50 36 18 39 28 17 46 -8 7 -15 16 -15 19 0 4 36 29 80 55 44 27 80
50 80 53 0 2 -12 1 -27 -3 -18 -4 3 15 59 53 67 45 113 88 193 181 58 66 105
123 105 126 0 4 -12 3 -26 0 -23 -6 -13 10 66 112 51 65 100 127 108 137 49
56 -23 -13 -258 -249z m427 -550 c-3 -3 -12 -4 -19 -1 -8 3 -5 6 6 6 11 1 17
-2 13 -5z"/>
<path d="M2584 1918 c-85 -91 -86 -95 -17 -57 57 31 63 37 63 67 0 17 -1 32
-3 32 -2 0 -21 -19 -43 -42z"/>
<path d="M360 1576 c0 -2 11 -6 25 -8 13 -3 22 -1 19 3 -5 9 -44 13 -44 5z"/>
<path d="M2520 783 c0 -5 25 -33 56 -63 l55 -55 -3 35 c-3 31 -9 38 -55 63
-29 16 -53 24 -53 20z"/>
</g>
</svg>
